<svg width="235" height="16" viewBox="0 0 235 16" fill="none" xmlns="http://www.w3.org/2000/svg">
<path d="M220.5 3.84021L231.5 7.84021L220.5 12.8402L215.5 7.84021L220.5 3.84021Z" fill="black"/>
<path d="M0 7.84021H215.5M215.5 7.84021L220.5 3.84021L231.5 7.84021L220.5 12.8402L215.5 7.84021Z" stroke="black" stroke-width="2"/>
<path fill-rule="evenodd" clip-rule="evenodd" d="M0.633606 0.680451L7.13361 7.68045L7.8664 7L1.3664 0L0.633606 0.680451ZM0.633606 15L7.13361 8L7.8664 8.68045L1.3664 15.6805L0.633606 15ZM10.1336 8L3.63361 15L4.3664 15.6805L10.8664 8.68045L10.1336 8ZM6.63361 15L13.1336 8L13.8664 8.68045L7.3664 15.6805L6.63361 15ZM16.1336 8L9.63361 15L10.3664 15.6805L16.8664 8.68045L16.1336 8ZM12.6336 15L19.1336 8L19.8664 8.68045L13.3664 15.6805L12.6336 15ZM22.1336 8L15.6336 15L16.3664 15.6805L22.8664 8.68045L22.1336 8ZM3.63361 0.680451L10.1336 7.68045L10.8664 7L4.3664 0L3.63361 0.680451ZM13.1336 7.68045L6.63361 0.680451L7.3664 0L13.8664 7L13.1336 7.68045ZM9.63361 0.680451L16.1336 7.68045L16.8664 7L10.3664 0L9.63361 0.680451ZM19.1336 7.68045L12.6336 0.680451L13.3664 0L19.8664 7L19.1336 7.68045ZM15.6336 0.680451L22.1336 7.68045L22.8664 7L16.3664 0L15.6336 0.680451Z" fill="black"/>
</svg>
