<svg id="Layer_1" data-name="Layer 1" xmlns="http://www.w3.org/2000/svg" viewBox="0 0 639 790.96"><defs><style>.cls-1{fill:#666;}</style></defs><path d="M308.51,576.17V572l22-10.59V420.39l-22-10.59v-4.13H396.6q30.75,0,52.19,10.07t32.67,27.64Q492.71,461,492.7,483.17a92.83,92.83,0,0,1-7.36,37.2,87.74,87.74,0,0,1-20.54,29.45,95.44,95.44,0,0,1-31,19.37,106.15,106.15,0,0,1-39,7ZM386,419.88H369.48V562h20.15q30,0,46.24-19.25t16.27-51.53q0-32.55-16.66-51.93T386,419.88Z" transform="translate(-189 -145.04)"/><path d="M613.6,578.75a94.39,94.39,0,0,1-34.75-6.33,89.23,89.23,0,0,1-28.41-17.69,80.61,80.61,0,0,1-26-60.2A85.69,85.69,0,0,1,532.22,458a90.05,90.05,0,0,1,21.45-29.06,98.44,98.44,0,0,1,31.25-19.12,102.53,102.53,0,0,1,37-6.72,151.23,151.23,0,0,1,23.38,1.55,90.72,90.72,0,0,1,17.3,4.4q7.62,2.84,15.12,6.45L680.51,461h-4.65l-24.8-37.46a48.54,48.54,0,0,0-13.43-6.07,58.74,58.74,0,0,0-14.73-1.68,49.87,49.87,0,0,0-29.45,9.3q-13.17,9.3-20.93,26t-7.75,38.88q0,23.25,7.5,39.92t20.27,25.7a48.29,48.29,0,0,0,28.55,9c2.93,0,6.11-.13,9.56-.38A85.19,85.19,0,0,0,641,562.73V514.94L618,502.8v-4.13h81.12v4.13l-19.38,12.4v41.85a76.07,76.07,0,0,1-19.24,11.5A133.41,133.41,0,0,1,637,576,108.32,108.32,0,0,1,613.6,578.75Z" transform="translate(-189 -145.04)"/><path class="cls-1" d="M432,270" transform="translate(-189 -145.04)"/><polygon points="0 359.48 270 718.96 270 646.96 270 628.94 270 556.96 227.68 611.84 195.75 598.93 41.14 358.89 195.75 118.84 243.47 99.55 270 133.96 270 88.83 270 43.96 270 0 0 359.48"/><polygon points="639 359.48 360 718.96 360 646.96 360 628.94 360 556.96 403.73 611.84 436.73 598.93 596.49 358.89 436.73 118.84 387.42 99.55 360 133.96 360 88.83 360 43.96 360 0 639 359.48"/><path d="M499,578.08c.1.76.21,1.52.31,2.28,0,0,.14,1,.05.34l.08.64c.2,1.53.38,3.06.53,4.59a88.71,88.71,0,0,1,.5,8.92q0,2-.12,4c-.05.76-.13,1.51-.2,2.26,0,.07-.12,1,0,.33s-.12.74-.15.88q-.36,2.09-.93,4.14c-.18.63-.38,1.27-.59,1.89-.12.36-.26.72-.39,1.08-.33,1,.09-.11-.14.4a50.12,50.12,0,0,1-4,7.1c-.7,1-1.43,2-2.17,3-.42.58-.85,1.14-1.28,1.71-.13.16-.7.9-.05.06l-.66.84c-3.58,4.61-7.32,9.2-9.95,14.44-5.55,11.06-6.48,23.31-4.81,35.41s6.24,23.31,11.23,34.3c2.5,5.53,5.14,11,7.63,16.53.61,1.36,1.19,2.73,1.79,4.1.41.92-.29-.72.09.21l.35.83c.34.82.67,1.65,1,2.48,1.11,2.82,2.14,5.67,3.05,8.56s1.61,5.51,2.24,8.31c.32,1.4.61,2.81.86,4.22.14.76.26,1.51.38,2.27,0,.28.09.56.13.85.28,1.8-.06-.66.06.39a87.73,87.73,0,0,1,.34,17.6c-.07.66-.14,1.31-.22,2,0,.21-.18,1.17,0,.09,0,.27-.08.55-.13.83-.23,1.49-.52,3-.85,4.44a64.82,64.82,0,0,1-2.55,8.42l-.42,1.06s-.38.9-.14.34-.22.49-.28.62c-.16.36-.33.72-.5,1.08-.67,1.42-1.39,2.83-2.12,4.23-1.37,2.63-2.79,5.24-4.07,7.92-5.48,11.52-7.62,24-8.54,36.59a122.64,122.64,0,0,0-.58,16.81,59.88,59.88,0,0,0,3,15.34,67.78,67.78,0,0,0,17,27.18,64.05,64.05,0,0,0,6.31,5.2c2.54,1.86,6.8.51,8.21-2.15,1.65-3.13.56-6.22-2.15-8.21l-.76-.56c.17.12,1,.77.1.06l-1.27-1.06c-.91-.78-1.79-1.6-2.64-2.44s-1.69-1.74-2.5-2.65q-.57-.63-1.11-1.29l-.62-.76c-.73-.87.3.43-.12-.14a69.53,69.53,0,0,1-7.6-13c.49,1.09-.08-.22-.24-.62s-.41-1.07-.61-1.61c-.44-1.22-.84-2.46-1.2-3.71a57.92,57.92,0,0,1-1.55-7c-.2-1.25,0,.13,0,.19a3.65,3.65,0,0,1-.11-.93c-.06-.54-.1-1.08-.14-1.62-.09-1.22-.12-2.45-.11-3.67,0-2.8.21-5.61.36-8.41.16-3,.36-6,.65-9,.13-1.35.28-2.71.44-4.06s.05-.39,0-.14c0-.38.1-.76.16-1.15.11-.76.24-1.53.37-2.29.48-2.86,1.09-5.7,1.85-8.5q.57-2.1,1.26-4.17c.21-.64.44-1.28.67-1.92.14-.36.27-.73.41-1.09.05-.12.61-1.5.36-.91s.15-.33.16-.36c.16-.36.32-.72.49-1.07.33-.72.67-1.43,1-2.14.66-1.33,1.35-2.64,2-3.95,1.42-2.71,2.87-5.41,4.12-8.21a69.22,69.22,0,0,0,5.29-17.2,91.8,91.8,0,0,0-1.76-36.56c-2.92-12-8.14-23.22-13.34-34.35-1.26-2.71-2.52-5.41-3.76-8.13-.57-1.27-1.13-2.54-1.69-3.82-.07-.16-1-2.23-.57-1.3l-.9-2.2a111.14,111.14,0,0,1-5.37-16.5c-.31-1.35-.59-2.7-.84-4.07-.11-.63-.22-1.27-.32-1.91,0-.16-.19-1.31-.09-.56s-.1-.88-.09-.85a64.17,64.17,0,0,1-.42-8.2c0-1.27.07-2.53.17-3.8.06-.71.14-1.43.22-2.15-.14,1.24.12-.7.19-1.07a45,45,0,0,1,2.18-8.07c.11-.31.76-1.85.31-.84.26-.58.53-1.16.81-1.73.64-1.28,1.34-2.53,2.09-3.75,1.45-2.34,3.08-4.56,4.75-6.76,0,0,.58-.75.19-.24l.35-.45c.38-.5.77-1,1.15-1.48,1.08-1.39,2.16-2.78,3.22-4.19a69.87,69.87,0,0,0,4.46-6.59c6.31-10.8,6.93-23.2,5.59-35.36-.35-3.2-.8-6.4-1.25-9.6s-4.58-5.1-7.38-4.19c-3.42,1.11-4.66,4-4.19,7.38Z" transform="translate(-189 -145.04)"/><path d="M504,936l-36-54s26.72,9,36,9,36-9,36-9Z" transform="translate(-189 -145.04)"/><path d="M505,621s12.5-15,20.25-20.77c3.06-2.26,6.89-10,6.75-13.85-.3-7.73-8.44-20.76-13.5-27.69S505,531,505,531s-8.44,20.77-13.5,27.69-13.2,20-13.5,27.69c-.15,3.87,3.69,11.59,6.75,13.85C492.49,606,505,621,505,621Z" transform="translate(-189 -145.04)"/><polygon points="315 277.96 279 239.39 279 220.1 261 200.82 270 171.89 315 142.96 360 171.89 369 200.82 351 220.1 351 239.39 315 277.96"/><polygon points="288 115.96 270 151.96 279 169.96 297 160.96 288 151.96 288 115.96"/><polygon points="342 115.96 360 151.96 351 169.96 333 160.96 342 151.96 342 115.96"/></svg>